<svg width="705" height="897" viewBox="0 0 705 897" fill="none" xmlns="http://www.w3.org/2000/svg">
<path d="M200.48 760.67C205.79 758.192 211.629 757.062 217.48 757.38C230.65 758.09 242.48 766.38 248.48 779.14L278.19 842.8L329.58 701.59C321.711 699.552 314.152 696.46 307.11 692.4L284.74 679.48C273.437 672.947 260.615 669.498 247.56 669.48H221.73C208.3 669.47 195.04 666.474 182.91 660.71L135.54 790.91L200.48 760.67Z" fill="#E4CBF5"/>
<path d="M282.51 850.09C282.223 850.899 281.699 851.603 281.007 852.111C280.316 852.619 279.488 852.908 278.63 852.94H278.43C277.605 852.94 276.797 852.705 276.101 852.262C275.405 851.819 274.85 851.187 274.5 850.44L242.5 781.91C237.6 771.4 227.88 764.51 217.14 763.91C212.353 763.64 207.574 764.561 203.23 766.59L133.42 799.09C132.643 799.451 131.776 799.574 130.93 799.443C130.083 799.312 129.294 798.934 128.662 798.355C128.03 797.777 127.583 797.024 127.378 796.192C127.173 795.36 127.219 794.486 127.51 793.68L177 657.7C172.322 655.054 167.888 651.999 163.75 648.57L107.67 802.76C106.75 805.281 106.598 808.018 107.233 810.624C107.869 813.231 109.264 815.591 111.242 817.405C113.219 819.219 115.69 820.405 118.343 820.813C120.995 821.222 123.708 820.835 126.14 819.7L209.83 780.7C213.088 779.189 216.811 779.032 220.185 780.261C223.559 781.491 226.308 784.008 227.83 787.26L266.83 870.86C267.965 873.292 269.795 875.333 272.09 876.725C274.385 878.117 277.041 878.797 279.722 878.679C282.404 878.561 284.99 877.651 287.154 876.064C289.318 874.476 290.963 872.282 291.88 869.76L352.04 704.47C346.66 704.456 341.293 703.964 336 703L282.51 850.09Z" fill="#5C5AA0"/>
<path fill-rule="evenodd" clip-rule="evenodd" d="M274.5 850.44C274.85 851.187 275.405 851.819 276.101 852.262C276.77 852.687 277.541 852.921 278.332 852.939C278.365 852.94 278.397 852.94 278.43 852.94H278.63C278.704 852.937 278.778 852.932 278.852 852.926C279.63 852.856 280.376 852.575 281.007 852.111C281.699 851.602 282.223 850.899 282.51 850.09L336 703C341.293 703.964 346.66 704.456 352.04 704.47L291.88 869.76C290.963 872.282 289.318 874.476 287.154 876.063C284.99 877.651 282.404 878.561 279.722 878.679C277.041 878.797 274.385 878.117 272.09 876.725C269.795 875.333 267.965 873.292 266.83 870.86L227.83 787.26C226.308 784.007 223.559 781.491 220.185 780.261C218.916 779.798 217.596 779.532 216.271 779.461C216.268 779.46 216.265 779.46 216.262 779.46C214.069 779.343 211.859 779.759 209.83 780.7L126.14 819.7C123.708 820.834 120.995 821.222 118.343 820.813C115.69 820.405 113.219 819.218 111.242 817.405C109.264 815.591 107.869 813.231 107.233 810.624C106.598 808.017 106.75 805.281 107.67 802.76L163.75 648.57C167.888 651.999 172.322 655.054 177 657.7L127.51 793.68C127.219 794.486 127.173 795.36 127.378 796.192C127.564 796.945 127.947 797.633 128.487 798.186C128.544 798.244 128.602 798.3 128.662 798.355C128.738 798.425 128.817 798.492 128.898 798.556C129.486 799.022 130.185 799.328 130.93 799.443C131.776 799.574 132.643 799.451 133.42 799.09L203.23 766.59C203.237 766.587 203.243 766.584 203.25 766.581C203.259 766.576 203.268 766.572 203.277 766.568C207.608 764.554 212.37 763.641 217.14 763.91C220.022 764.071 222.83 764.685 225.492 765.7C232.357 768.319 238.244 773.607 241.896 780.679C241.898 780.684 241.901 780.689 241.904 780.695C242.11 781.094 242.308 781.499 242.5 781.91L274.5 850.44ZM276.862 812.954L258.814 774.304C258.813 774.301 258.811 774.298 258.81 774.294C251.37 758.346 236.111 746.946 218.155 745.939M276.862 812.954L324.276 682.569L339.225 685.291C343.469 686.064 347.774 686.459 352.088 686.47L377.722 686.538L308.796 875.912C306.662 881.78 302.836 886.883 297.801 890.577C292.767 894.27 286.75 896.388 280.512 896.662C274.274 896.936 268.095 895.354 262.756 892.116C257.417 888.878 253.158 884.129 250.518 878.471L213.396 798.897L133.75 836.012L133.747 836.014L133.743 836.015C128.085 838.653 121.772 839.554 115.602 838.603C109.429 837.652 103.678 834.891 99.0751 830.67C94.4725 826.449 91.2258 820.957 89.746 814.889C88.268 808.83 88.619 802.468 90.7541 796.608L90.7559 796.603C90.758 796.597 90.76 796.591 90.7621 796.586L155.565 618.411L175.235 634.71C178.554 637.46 182.11 639.91 185.861 642.032L199.127 649.535L155.697 768.864L195.611 750.282C195.615 750.28 195.618 750.279 195.622 750.277C202.656 746.993 210.393 745.502 218.144 745.938" fill="#5C5AA0"/>
<path d="M128.68 798.39C129.311 798.972 130.101 799.352 130.949 799.482C131.797 799.612 132.664 799.486 133.44 799.12L203.25 766.62C207.594 764.591 212.373 763.67 217.16 763.94C227.9 764.52 237.62 771.41 242.52 781.94L274.52 850.47C274.87 851.217 275.425 851.849 276.121 852.292C276.817 852.735 277.625 852.97 278.45 852.97H278.65C279.508 852.938 280.336 852.649 281.027 852.141C281.719 851.632 282.243 850.929 282.53 850.12L336 703C333.83 702.6 331.67 702.13 329.53 701.57L278.18 842.8L248.47 779.14C242.54 766.43 230.68 758.14 217.47 757.38C211.619 757.062 205.78 758.192 200.47 760.67L135.53 790.91L182.9 660.75C180.9 659.75 178.9 658.75 177.03 657.75L127.52 793.75C127.236 794.552 127.195 795.42 127.401 796.245C127.608 797.07 128.052 797.816 128.68 798.39Z" fill="#5C5AA0"/>
<path d="M458.05 777.94C460.243 773.217 463.449 769.035 467.44 765.69C467.94 765.27 468.44 764.86 468.98 764.47C479.51 756.54 493.98 755.29 506.68 761.21L570.37 790.84L522.8 660.39C510.47 666.387 496.941 669.509 483.23 669.52H457.41C444.355 669.539 431.533 672.987 420.23 679.52L397.87 692.4C391.064 696.328 383.776 699.353 376.19 701.4L427.78 842.88L458.05 777.94Z" fill="#E4CBF5"/>
<path d="M578.38 793.64C578.674 794.446 578.722 795.322 578.518 796.156C578.315 796.989 577.868 797.744 577.236 798.324C576.603 798.904 575.813 799.284 574.964 799.415C574.116 799.546 573.248 799.422 572.47 799.06L503.91 767.16C493.39 762.27 481.52 763.25 472.91 769.71C472.47 770.04 472.05 770.37 471.64 770.71C468.382 773.439 465.766 776.853 463.98 780.71L431.43 850.5C431.085 851.25 430.533 851.885 429.838 852.33C429.143 852.775 428.335 853.011 427.51 853.01H427.31C426.452 852.978 425.624 852.689 424.933 852.181C424.241 851.672 423.717 850.969 423.43 850.16L369.74 702.87C364.464 703.878 359.111 704.424 353.74 704.5L414.04 869.87C414.964 872.38 416.609 874.561 418.769 876.138C420.93 877.716 423.508 878.619 426.18 878.734C428.853 878.85 431.499 878.172 433.788 876.787C436.076 875.402 437.903 873.371 439.04 870.95L478.04 787.29C479.564 784.039 482.313 781.524 485.686 780.295C489.059 779.066 492.782 779.222 496.04 780.73L579.68 819.64C582.113 820.771 584.826 821.155 587.477 820.744C590.128 820.333 592.598 819.146 594.575 817.332C596.551 815.518 597.946 813.159 598.582 810.553C599.219 807.947 599.068 805.211 598.15 802.69L541.85 648C537.737 651.478 533.323 654.584 528.66 657.28L578.38 793.64Z" fill="#5C5AA0"/>
<path fill-rule="evenodd" clip-rule="evenodd" d="M592.927 788.34L592.926 788.336L541.85 648C537.737 651.478 533.323 654.584 528.66 657.28L578.38 793.64C578.674 794.446 578.722 795.322 578.518 796.156C578.328 796.933 577.928 797.641 577.362 798.204C577.321 798.245 577.279 798.285 577.236 798.324C577.155 798.398 577.073 798.468 576.988 798.535C576.402 798.997 575.705 799.301 574.964 799.415C574.116 799.546 573.248 799.422 572.47 799.06L503.91 767.16C503.481 766.961 503.05 766.771 502.617 766.591C502.608 766.587 502.599 766.584 502.589 766.58C495.23 763.531 487.316 763.29 480.377 765.729C477.716 766.664 475.198 767.994 472.91 769.71C472.47 770.04 472.05 770.37 471.64 770.71C468.384 773.437 465.77 776.848 463.984 780.701C463.983 780.704 463.981 780.707 463.98 780.71L431.43 850.5C431.085 851.25 430.533 851.885 429.838 852.33C429.152 852.769 428.357 853.004 427.543 853.01C427.532 853.01 427.521 853.01 427.51 853.01H427.31C427.221 853.007 427.133 853.001 427.045 852.992C426.282 852.915 425.553 852.636 424.933 852.181C424.241 851.672 423.717 850.969 423.43 850.16L369.74 702.87C364.464 703.878 359.111 704.424 353.74 704.5L414.04 869.87C414.964 872.38 416.609 874.561 418.769 876.138C420.93 877.716 423.508 878.619 426.18 878.734C428.853 878.85 431.499 878.172 433.787 876.787C436.076 875.402 437.903 873.371 439.04 870.95L478.04 787.29C478.043 787.284 478.046 787.278 478.049 787.272C478.054 787.259 478.06 787.247 478.066 787.234C478.904 785.468 480.104 783.922 481.569 782.683C481.588 782.667 481.607 782.651 481.627 782.634C481.827 782.467 482.031 782.306 482.24 782.151L482.243 782.149C483.286 781.375 484.444 780.748 485.686 780.295C489.059 779.066 492.782 779.222 496.04 780.73L497.319 781.325L497.324 781.328L579.68 819.64C582.113 820.771 584.826 821.155 587.477 820.744C590.128 820.333 592.598 819.146 594.575 817.332C596.551 815.518 597.946 813.159 598.582 810.553C599.218 807.947 599.068 805.211 598.15 802.69L592.927 788.34ZM615.065 796.534C617.199 802.397 617.548 808.761 616.068 814.823C614.588 820.886 611.344 826.374 606.745 830.594C602.147 834.814 596.401 837.576 590.233 838.532C584.066 839.488 577.753 838.594 572.093 835.963L492.476 798.924L455.344 878.578L455.333 878.6C452.688 884.235 448.434 888.962 443.109 892.186C437.783 895.409 431.623 896.986 425.403 896.717C419.184 896.449 413.183 894.346 408.155 890.676C403.127 887.005 399.298 881.929 397.147 876.087L397.138 876.061L328.149 686.862L353.484 686.502C357.806 686.44 362.115 686.001 366.361 685.19L381.406 682.315L429.05 813.019L447.647 773.145C447.65 773.137 447.654 773.129 447.658 773.121C450.557 766.87 454.8 761.335 460.083 756.91L460.116 756.882L460.15 756.854C460.805 756.311 461.456 755.8 462.107 755.312L462.11 755.31C476.512 744.506 495.533 743.417 511.497 750.837L550.176 768.834L506.575 649.256L519.651 641.697C523.39 639.535 526.928 637.045 530.226 634.257L549.936 617.586L615.065 796.534Z" fill="#5C5AA0"/>
<path d="M427.33 853H427.53C428.355 853.001 429.163 852.765 429.858 852.32C430.553 851.875 431.105 851.24 431.45 850.49L464 780.71C465.786 776.854 468.402 773.439 471.66 770.71C472.07 770.36 472.49 770.03 472.93 769.71C481.52 763.25 493.39 762.27 503.93 767.16L572.49 799.06C573.268 799.422 574.136 799.546 574.984 799.415C575.833 799.284 576.623 798.904 577.256 798.324C577.888 797.744 578.335 796.99 578.538 796.156C578.742 795.322 578.694 794.447 578.4 793.64L528.66 657.29C526.75 658.4 524.79 659.43 522.8 660.39L570.37 790.84L506.68 761.21C493.96 755.29 479.51 756.54 468.98 764.47C468.45 764.86 467.98 765.27 467.44 765.69C463.449 769.035 460.243 773.217 458.05 777.94L427.78 842.86L376.19 701.38C374.05 701.96 371.9 702.45 369.74 702.87L423.45 850.15C423.737 850.959 424.261 851.663 424.953 852.171C425.644 852.679 426.472 852.968 427.33 853Z" fill="#5C5AA0"/>
<path d="M688.31 352.285C688.31 365.332 684.886 378.151 678.38 389.46L665.47 411.83C657.507 425.629 653.313 441.279 653.31 457.21V483C653.292 496.057 649.846 508.881 643.316 520.188C636.786 531.495 627.401 540.889 616.1 547.43L593.73 560.34C579.939 568.318 568.483 579.776 560.51 593.57L547.6 615.93C541.058 627.221 531.667 636.597 520.366 643.122C509.065 649.646 496.249 653.09 483.2 653.11H457.38C441.449 653.117 425.8 657.311 412 665.27L389.66 678.14C378.349 684.646 365.529 688.07 352.48 688.07C339.431 688.07 326.611 684.646 315.3 678.14L292.94 665.23C279.137 657.27 263.484 653.077 247.55 653.07H221.73C208.682 653.051 195.867 649.608 184.567 643.083C173.268 636.558 163.879 627.181 157.34 615.89L144.42 593.53C136.451 579.733 124.995 568.273 111.2 560.3L88.83 547.39C77.5418 540.848 68.168 531.459 61.6453 520.159C55.1226 508.86 51.6795 496.047 51.66 483V457.21C51.6514 441.279 47.4581 425.63 39.5 411.83L26.58 389.46C20.0739 378.151 16.6498 365.332 16.6498 352.285C16.6498 339.238 20.0739 326.419 26.58 315.11L39.5 292.74C47.4581 278.94 51.6514 263.291 51.66 247.36V221.53C51.6795 208.483 55.1226 195.67 61.6453 184.371C68.168 173.071 77.5418 163.682 88.83 157.14L111.2 144.23C124.995 136.257 136.451 124.797 144.42 111L157.34 88.64C163.88 77.3499 173.27 67.9741 184.569 61.4496C195.868 54.9252 208.682 51.4805 221.73 51.46H247.55C263.484 51.4532 279.137 47.2598 292.94 39.3L315.28 26.39C326.591 19.884 339.411 16.46 352.46 16.46C365.509 16.46 378.329 19.884 389.64 26.39L412 39.3C425.81 47.2606 441.47 51.4539 457.41 51.46H483.23C496.279 51.4818 509.094 54.9269 520.394 61.4511C531.695 67.9754 541.086 77.3505 547.63 88.64L560.54 111C568.513 124.794 579.969 136.252 593.76 144.23L616.13 157.14C627.419 163.681 636.795 173.071 643.319 184.37C649.843 195.669 653.288 208.482 653.31 221.53V247.36C653.313 263.291 657.507 278.941 665.47 292.74L678.38 315.11C684.886 326.419 688.31 339.238 688.31 352.285Z" fill="white"/>
<path fill-rule="evenodd" clip-rule="evenodd" d="M616.967 383.84L616.968 383.839L629.839 361.535C629.842 361.53 629.845 361.525 629.848 361.52C631.461 358.71 632.31 355.526 632.31 352.285C632.31 349.044 631.461 345.86 629.848 343.05C629.845 343.045 629.842 343.04 629.839 343.035L616.968 320.731L616.967 320.73C604.095 298.425 597.316 273.126 597.31 247.372L597.31 221.622C597.31 221.614 597.31 221.605 597.31 221.597C597.3 218.357 596.443 215.177 594.823 212.372L643.319 184.37C649.843 195.669 653.288 208.482 653.31 221.53V247.36C653.313 263.291 657.507 278.941 665.47 292.74L678.38 315.11C684.886 326.419 688.31 339.238 688.31 352.285C688.31 365.332 684.886 378.151 678.38 389.46L665.47 411.83C657.507 425.629 653.313 441.279 653.31 457.21V483C653.292 496.057 649.846 508.881 643.316 520.188C636.786 531.495 627.401 540.889 616.1 547.43L593.73 560.34C579.939 568.318 568.483 579.776 560.51 593.57L547.6 615.93C541.058 627.221 531.667 636.597 520.366 643.122C509.065 649.646 496.249 653.09 483.2 653.11H457.38C441.449 653.117 425.8 657.311 412 665.27L389.66 678.14C378.349 684.646 365.529 688.07 352.48 688.07C339.431 688.07 326.611 684.646 315.3 678.14L292.94 665.23C279.137 657.27 263.484 653.077 247.55 653.07H221.73C208.682 653.051 195.867 649.608 184.567 643.083L212.57 594.587C215.371 596.205 218.547 597.06 221.782 597.07C221.791 597.07 221.8 597.07 221.81 597.07L247.574 597.07C273.32 597.081 298.611 603.857 320.915 616.718L320.928 616.725L320.941 616.733L343.221 629.597C343.229 629.602 343.236 629.606 343.244 629.61C346.055 631.222 349.24 632.07 352.48 632.07C355.729 632.07 358.922 631.217 361.739 629.597L384.021 616.76C384.025 616.758 384.029 616.756 384.033 616.753C384.037 616.751 384.041 616.749 384.046 616.746C406.34 603.893 431.62 597.122 457.355 597.11L483.115 597.11C483.124 597.11 483.133 597.11 483.142 597.11C486.381 597.1 489.561 596.243 492.367 594.624C495.174 593.003 497.508 590.675 499.136 587.872C499.139 587.866 499.143 587.86 499.146 587.855L512.027 565.545C524.907 543.263 543.412 524.752 565.69 511.866L588.048 498.963C588.055 498.959 588.062 498.955 588.069 498.951C590.872 497.323 593.201 494.989 594.822 492.182C596.443 489.376 597.301 486.194 597.31 482.953C597.31 482.944 597.31 482.934 597.31 482.925L597.31 457.198C597.316 431.444 604.095 406.145 616.967 383.84ZM144.42 593.53L157.34 615.89C163.879 627.181 173.268 636.558 184.567 643.083L212.57 594.587C209.763 592.966 207.429 590.637 205.804 587.832C205.803 587.83 205.802 587.828 205.801 587.826L192.913 565.522C192.911 565.519 192.909 565.516 192.908 565.513C180.029 543.218 161.515 524.7 139.223 511.816L139.207 511.807L139.191 511.798L116.909 498.938C116.901 498.934 116.894 498.929 116.886 498.925C114.088 497.298 111.763 494.966 110.145 492.162C108.526 489.359 107.67 486.181 107.66 482.944L107.66 457.18C107.646 431.439 100.871 406.154 88.012 383.855L75.1207 361.535C75.1155 361.526 75.1103 361.517 75.1052 361.508C73.4964 358.701 72.6498 355.521 72.6498 352.285C72.6498 349.049 73.4964 345.869 75.1052 343.062C75.1103 343.053 75.1155 343.044 75.1207 343.035L88.012 320.715C100.871 298.416 107.646 273.131 107.66 247.39L107.66 221.586C107.67 218.349 108.526 215.171 110.145 212.368C111.762 209.566 114.083 207.236 116.879 205.609C116.889 205.603 116.899 205.598 116.909 205.592L139.223 192.714C161.515 179.83 180.029 161.312 192.908 139.017C192.909 139.014 192.911 139.011 192.913 139.008L205.796 116.711C205.8 116.705 205.804 116.698 205.808 116.692C207.435 113.891 209.766 111.565 212.571 109.946C215.375 108.327 218.552 107.47 221.789 107.46L247.574 107.46C273.32 107.449 298.611 100.673 320.915 87.812L320.937 87.7991L343.201 74.9329C343.212 74.9269 343.222 74.9209 343.232 74.9149C346.042 73.3064 349.223 72.46 352.46 72.46C355.699 72.46 358.882 73.3073 361.692 74.9174C361.701 74.9225 361.71 74.9277 361.719 74.9329L384.034 87.8169C406.343 100.676 431.638 107.45 457.388 107.46L483.167 107.46C486.407 107.471 489.589 108.329 492.395 109.949C495.201 111.569 497.534 113.894 499.163 116.693C499.169 116.703 499.175 116.713 499.18 116.722L512.057 139.025C524.937 161.307 543.442 179.818 565.72 192.704L588.055 205.594C588.064 205.599 588.073 205.605 588.082 205.61C590.88 207.237 593.204 209.569 594.823 212.372L643.319 184.37C636.795 173.071 627.419 163.681 616.13 157.14L593.76 144.23C579.969 136.252 568.513 124.794 560.54 111L547.63 88.64C541.086 77.3505 531.695 67.9754 520.394 61.4511C509.094 54.9269 496.279 51.4818 483.23 51.46H457.41C441.47 51.4539 425.81 47.2606 412 39.3L389.64 26.39C378.329 19.884 365.509 16.46 352.46 16.46C339.411 16.46 326.591 19.884 315.28 26.39L292.94 39.3C279.137 47.2598 263.484 51.4532 247.55 51.46H221.73C208.682 51.4805 195.868 54.9252 184.569 61.4496C173.27 67.9741 163.88 77.3499 157.34 88.64L144.42 111C136.451 124.797 124.995 136.257 111.2 144.23L88.83 157.14C77.5418 163.682 68.168 173.071 61.6453 184.371C55.1226 195.67 51.6795 208.483 51.66 221.53V247.36C51.6514 263.291 47.4581 278.94 39.5 292.74L26.58 315.11C20.0739 326.419 16.6498 339.238 16.6498 352.285C16.6498 365.332 20.0739 378.151 26.58 389.46L39.5 411.83C47.4581 425.63 51.6514 441.279 51.66 457.21V483C51.6795 496.047 55.1226 508.86 61.6453 520.159C68.168 531.459 77.5418 540.848 88.83 547.39L111.2 560.3C124.995 568.273 136.451 579.733 144.42 593.53Z" fill="#5C5AA0"/>
<path d="M692.59 306.9L679.68 284.54C673.144 273.238 669.696 260.416 669.68 247.36V221.53C669.655 205.602 665.449 189.96 657.484 176.167C649.519 162.374 638.073 150.913 624.29 142.93L602 130C590.697 123.475 581.309 114.091 574.78 102.79L561.87 80.42C553.885 66.6377 542.422 55.1927 528.627 47.2292C514.832 39.2657 499.188 35.0626 483.26 35.04H457.41C444.355 35.021 431.533 31.5726 420.23 25.04L397.87 12.12C384.064 4.17571 368.414 -0.00540161 352.485 -0.00540161C336.556 -0.00540161 320.906 4.17571 307.1 12.12L284.73 25.04C273.427 31.5735 260.605 35.022 247.55 35.04H221.73C205.802 35.0626 190.158 39.2657 176.363 47.2292C162.568 55.1927 151.105 66.6377 143.12 80.42L130.21 102.8C123.682 114.096 114.298 123.476 103 130L80.64 142.92C66.8573 150.903 55.4113 162.364 47.446 176.157C39.4808 189.95 35.2753 205.592 35.25 221.52V247.35C35.2343 260.406 31.7857 273.228 25.25 284.53L12.37 306.9C4.42571 320.706 0.244598 336.356 0.244598 352.285C0.244598 368.214 4.42571 383.864 12.37 397.67L25.28 420C31.8157 431.302 35.2643 444.124 35.28 457.18V483C35.3086 498.928 39.5154 514.571 47.4802 528.365C55.445 542.159 66.8892 553.622 80.67 561.61L103 574.56C114.303 581.085 123.691 590.469 130.22 601.77L143.13 624.14C151.237 638.138 162.928 649.723 177 657.7C178.92 658.79 180.88 659.8 182.87 660.7C195 666.464 208.26 669.46 221.69 669.47H247.51C260.565 669.488 273.387 672.936 284.69 679.47L307.1 692.4C314.142 696.46 321.701 699.552 329.57 701.59C331.71 702.15 333.87 702.59 336.04 703.02C341.319 703.988 346.673 704.487 352.04 704.51H352.45H353.73C359.101 704.434 364.454 703.888 369.73 702.88C371.89 702.46 374.04 701.97 376.18 701.39C383.766 699.343 391.054 696.318 397.86 692.39L420.22 679.47C431.523 672.937 444.345 669.489 457.4 669.47H483.22C496.931 669.459 510.46 666.337 522.79 660.34C524.79 659.34 526.79 658.34 528.65 657.24C542.417 649.279 553.857 637.849 561.83 624.09L574.74 601.72C581.29 590.434 590.69 581.068 602 574.56L624.36 561.65C638.144 553.659 649.589 542.188 657.549 528.386C665.51 514.584 669.706 498.933 669.72 483V457.21C669.736 444.154 673.184 431.332 679.72 420.03L692.63 397.67C700.568 383.86 704.742 368.208 704.735 352.28C704.728 336.351 700.54 320.703 692.59 306.9ZM653.31 483C653.288 496.048 649.843 508.861 643.319 520.16C636.795 531.459 627.419 540.849 616.13 547.39L593.76 560.3C579.969 568.278 568.513 579.736 560.54 593.53L547.63 615.89C541.088 627.181 531.697 636.557 520.396 643.082C509.095 649.606 496.279 653.05 483.23 653.07H457.41C441.465 653.084 425.805 657.291 412 665.27L389.63 678.18C378.319 684.686 365.499 688.11 352.45 688.11C339.401 688.11 326.581 684.686 315.27 678.18L292.91 665.27C279.107 657.31 263.454 653.117 247.52 653.11H221.73C208.682 653.091 195.867 649.648 184.567 643.123C173.268 636.598 163.879 627.221 157.34 615.93L144.42 593.57C136.451 579.773 124.995 568.313 111.2 560.34L88.83 547.43C77.5359 540.885 68.1583 531.489 61.6353 520.182C55.1123 508.875 51.6725 496.054 51.66 483V457.21C51.6514 441.279 47.4581 425.63 39.5 411.83L26.58 389.46C20.0739 378.151 16.6498 365.332 16.6498 352.285C16.6498 339.238 20.0739 326.419 26.58 315.11L39.5 292.74C47.4581 278.94 51.6514 263.291 51.66 247.36V221.53C51.6795 208.483 55.1226 195.67 61.6453 184.371C68.168 173.071 77.5418 163.682 88.83 157.14L111.2 144.23C124.995 136.257 136.451 124.797 144.42 111L157.34 88.64C163.88 77.3499 173.27 67.9741 184.569 61.4496C195.868 54.9252 208.682 51.4805 221.73 51.46H247.55C263.484 51.4532 279.137 47.2598 292.94 39.3L315.3 26.39C326.611 19.884 339.431 16.46 352.48 16.46C365.529 16.46 378.349 19.884 389.66 26.39L412 39.3C425.804 47.2572 441.456 51.4504 457.39 51.46H483.21C496.259 51.4818 509.074 54.9269 520.374 61.4511C531.675 67.9754 541.066 77.3505 547.61 88.64L560.54 111C568.513 124.794 579.969 136.252 593.76 144.23L616.13 157.14C627.419 163.681 636.795 173.071 643.319 184.37C649.843 195.669 653.288 208.482 653.31 221.53V247.36C653.313 263.291 657.507 278.942 665.47 292.74L678.38 315.11C684.886 326.419 688.31 339.238 688.31 352.285C688.31 365.332 684.886 378.151 678.38 389.46L665.47 411.83C657.507 425.629 653.313 441.279 653.31 457.21V483Z" fill="#5C5AA0"/>
</svg>
