<?xml version="1.0" standalone="no"?>
<!DOCTYPE svg PUBLIC "-//W3C//DTD SVG 20010904//EN"
 "http://www.w3.org/TR/2001/REC-SVG-20010904/DTD/svg10.dtd">
<svg version="1.0" xmlns="http://www.w3.org/2000/svg"
 width="700.000000pt" height="700.000000pt" viewBox="0 0 700.000000 700.000000"
 preserveAspectRatio="xMidYMid meet">
<metadata>
Created by potrace 1.14, written by Peter Selinger 2001-2017
</metadata>
<g transform="translate(0.000000,700.000000) scale(0.100000,-0.100000)"
fill="#000000" stroke="none">
<path d="M3351 6890 c-41 -11 -120 -44 -175 -74 l-101 -53 -195 -6 c-201 -6
-359 -24 -515 -58 -1032 -227 -1836 -1031 -2064 -2064 -34 -155 -52 -313 -57
-510 l-6 -190 -59 -120 c-72 -146 -93 -233 -86 -355 9 -137 54 -245 200 -474
79 -124 117 -202 148 -308 20 -66 23 -104 29 -398 6 -315 7 -327 31 -391 72
-187 156 -265 477 -440 182 -99 270 -163 332 -241 25 -31 87 -132 139 -225
175 -314 241 -400 353 -456 111 -56 202 -68 503 -66 223 1 260 -1 339 -20 105
-25 236 -85 356 -162 210 -136 342 -188 500 -196 142 -8 199 14 502 194 307
182 312 183 673 183 285 1 375 10 471 48 159 64 231 145 387 437 106 199 117
215 202 301 93 94 116 110 350 238 231 126 323 207 388 340 51 103 57 152 57
447 1 402 5 418 186 720 171 287 202 375 191 543 -9 138 -55 251 -190 460 -80
126 -127 221 -158 327 -21 68 -22 97 -25 370 -2 325 -8 371 -65 486 -66 136
-174 224 -464 378 -236 125 -318 205 -436 426 -124 231 -171 302 -248 380 -54
54 -95 85 -144 108 -111 53 -171 61 -465 61 -377 0 -429 13 -699 178 -81 49
-181 106 -222 127 -148 74 -296 92 -440 55z m96 -269 c287 -43 534 -121 798
-251 358 -176 627 -394 845 -683 289 -384 475 -848 530 -1321 14 -122 18 -384
7 -533 l-8 -113 89 0 c76 0 94 -3 123 -23 72 -48 69 -5 69 -845 0 -835 3 -800
-65 -842 -32 -20 -47 -20 -1240 -20 -1193 0 -1208 0 -1240 20 -62 39 -65 54
-66 402 l-2 313 -14 -343 c-15 -387 -15 -391 55 -434 35 -21 42 -22 629 -29
327 -4 597 -10 600 -12 9 -10 -267 -185 -387 -247 -289 -147 -597 -241 -925
-281 -147 -18 -494 -16 -645 5 -561 75 -1071 313 -1477 687 -333 308 -600 796
-712 1304 -44 199 -55 320 -55 580 0 268 11 384 60 599 151 676 563 1273 1139
1652 377 248 819 400 1280 438 122 10 483 -4 612 -23z"/>
<path d="M2268 5054 c-3 -5 -9 -23 -12 -41 -9 -38 -18 -46 -71 -63 -154 -48
-302 -175 -374 -320 -57 -117 -74 -206 -68 -350 8 -175 55 -290 161 -396 114
-113 260 -159 439 -136 289 37 495 198 583 457 36 107 45 285 20 399 -51 225
-189 355 -449 421 -110 28 -222 42 -229 29z m209 -363 c48 -24 89 -69 117
-131 17 -37 21 -65 21 -160 0 -158 -27 -243 -101 -317 -59 -59 -108 -77 -195
-71 -139 10 -221 132 -220 329 0 166 91 329 203 367 46 15 128 8 175 -17z"/>
<path d="M1108 4988 c-180 -13 -377 -52 -394 -79 -7 -11 -64 -219 -64 -233 0
-8 62 -3 108 10 22 6 23 6 17 -57 -5 -53 -31 -401 -61 -811 l-7 -88 31 0 c36
0 261 76 281 95 11 11 39 216 41 305 0 12 17 15 83 16 165 2 301 58 413 169
89 88 114 147 121 286 16 294 -164 416 -569 387z m180 -268 c18 -11 37 -32 43
-48 13 -33 4 -133 -15 -170 -18 -35 -82 -95 -121 -115 -47 -24 -101 -31 -107
-15 -3 7 1 87 9 178 12 126 19 168 31 178 25 20 122 15 160 -8z"/>
<path d="M4648 4988 c-198 -13 -379 -53 -397 -86 -10 -18 -61 -207 -61 -224 0
-10 57 -6 107 8 21 6 22 4 17 -42 -4 -45 -45 -593 -60 -816 l-7 -98 31 0 c35
0 260 76 280 94 7 7 18 73 27 166 8 85 15 155 15 155 172 0 248 14 357 67 86
42 185 133 217 201 53 114 60 290 15 384 -75 154 -236 211 -541 191z m183
-271 c44 -30 56 -71 41 -150 -13 -70 -45 -116 -114 -163 -49 -33 -114 -52
-130 -36 -5 5 -2 78 7 178 13 132 20 172 32 182 29 21 125 15 164 -11z"/>
<path d="M3556 4969 c-38 -11 -76 -24 -86 -29 -21 -11 -86 -161 -159 -365 -28
-77 -70 -189 -95 -250 l-44 -110 -87 -3 -87 -3 7 -37 c4 -20 23 -67 42 -105
l36 -67 -31 -80 -30 -80 41 -25 c73 -42 189 -87 199 -77 5 5 28 56 52 113 l43
104 178 0 178 0 37 -107 c20 -60 39 -111 43 -114 4 -4 79 17 168 46 131 43
160 56 155 69 -3 9 -28 79 -55 156 -28 77 -91 266 -140 420 -49 154 -114 343
-143 420 l-54 140 -50 2 c-27 1 -80 -7 -118 -18z m50 -568 c18 -88 35 -169 39
-181 6 -19 3 -20 -95 -20 -83 0 -101 3 -98 14 9 42 114 353 117 350 2 -2 19
-76 37 -163z"/>
<path d="M4495 3529 c-16 -6 -81 -21 -144 -34 -63 -13 -118 -28 -122 -32 -7
-7 -30 -255 -25 -260 7 -7 312 61 318 70 3 6 9 47 12 91 4 45 9 102 12 129 6
51 4 53 -51 36z"/>
<path d="M4978 3134 c-3 -3 -67 -18 -143 -34 -75 -15 -138 -30 -141 -32 -3 -3
-84 -866 -84 -895 0 -13 77 4 190 42 l135 45 23 243 c13 133 28 256 33 273 20
66 110 124 192 124 106 0 109 -23 57 -529 -10 -102 -17 -188 -14 -193 9 -15
48 -8 173 27 67 19 124 35 127 35 2 0 4 22 4 49 0 27 12 158 26 292 34 323 26
409 -45 480 -22 23 -54 42 -81 49 -85 23 -256 -7 -372 -66 -26 -13 -49 -24
-51 -24 -3 0 -1 19 4 43 12 64 11 77 -9 77 -10 0 -21 -2 -24 -6z"/>
<path d="M4435 3100 c-33 -10 -102 -26 -153 -35 -79 -15 -93 -20 -97 -39 -2
-11 -18 -181 -35 -376 -16 -195 -33 -383 -36 -417 -5 -50 -3 -63 7 -63 8 0 80
23 162 51 120 42 148 56 152 73 3 18 75 799 75 819 0 9 -2 9 -75 -13z"/>
<path d="M3644 2479 c-3 -6 -9 -78 -13 -160 l-6 -149 157 0 c155 0 158 0 163
23 7 30 25 221 25 263 l0 34 -159 0 c-105 0 -162 -4 -167 -11z"/>
</g>
</svg>
